<?xml version="1.0" encoding="UTF-8"?>
<svg id="Layer_1" data-name="Layer 1" xmlns="http://www.w3.org/2000/svg" xmlns:xlink="http://www.w3.org/1999/xlink" viewBox="0 0 1230.76 1422.73">
  <defs>
    <style>
      .cls-1 {
        fill: #fff;
      }

      .cls-2 {
        fill: url(#radial-gradient);
        opacity: .45;
      }

      .cls-3 {
        fill: #231f20;
      }
    </style>
    <radialGradient id="radial-gradient" cx="152.01" cy="8267.36" fx="152.01" fy="8267.36" r="6.32" gradientTransform="translate(15168.93 -60873.16) rotate(-180) scale(95.74 -7.53)" gradientUnits="userSpaceOnUse">
      <stop offset="0" stop-color="#b3b3b3"/>
      <stop offset="1" stop-color="#fff"/>
    </radialGradient>
  </defs>
  <path class="cls-2" d="m0,1375.95c0,25.84,266.27,46.78,594.69,46.78s636.07-20.94,636.07-46.78-307.63-46.77-636.07-46.77S0,1350.12,0,1375.95Z"/>
  <g>
    <path class="cls-3" d="m977.65,3.98c-37.08,8.77-44.63,11.16-44.63,11.16,5.29-11.75,18.79-11.75,18.79-11.75-78.69-14.09-136.24,44.63-136.24,44.63,0-18.79,15.27-24.66,15.27-24.66,0,0-62.94,21.59-97.95,119.59-36.63,102.55-90.57,66.25-90.57,66.25-19.26-10.94-38.97-17.88-58.26-21.98-.82,31.1-5.28,54.88-10.66,54.88s-10.17-25.57-10.73-58.35c-3.98-.45-7.92-.78-11.82-1.03.46,7.72.72,16.09.72,24.86,0,38.28-4.83,69.32-10.79,69.32s-10.79-31.03-10.79-69.32c0-8.93.27-17.46.74-25.3-4.02.07-7.97.24-11.84.48-.49,33.26-5.11,59.34-10.75,59.34s-10.05-24.94-10.71-57.14c-40.02,5.64-67.62,18.07-67.62,18.07-48.97-62.33-89.76-88.34-114.47-102.55-20.67-11.89-43.93-4.21-52.01,12.97-35.71,75.98.08,187.49,11.4,215.6,12.94,32.12,1.89,76.6,1.89,76.6-1,7.09-1.56,14.06-1.77,20.9,26.19.5,46.65,4.81,46.65,10.04s-20.24,9.49-46.22,10.03c.39,5.46,1,10.81,1.8,16.03,4.62-.2,9.42-.31,14.35-.31,35.95,0,65.09,5.68,65.09,12.68s-29.14,12.68-65.09,12.68c-3.07,0-6.08-.04-9.03-.12,1.54,5.59,3.26,10.97,5.1,16.14,22.03,1.16,38.24,5.08,38.24,9.74,0,4.1-12.54,7.62-30.55,9.2,15.08,32.99,57.63,78.96,57.63,78.96,21.57-80.63,151.87-44.89,150.74-139.26-1.92-160.32,111.68-147.72,192.58-224.3-19.68,26.22-43.95,69.11-44.06,121.25-.05,26.09,10.38,60.3,27.41,80.07,13.44,15.6,23.18,36.14,29.9,54.33,8.64,23.4,22.69,44.55,41.56,60.87,68.05,58.85,30.6,185.26,30.6,185.26,72.82,18.79,43.46,72.82,43.46,72.82,43.46,63.42,4.7,144.46,4.7,144.46,19.53-15.98,36.84-31.9,51.22-48.47,27.08-31.2,25.12-69.57,25.12-69.57,5.09,11.94,5.29,24.86,2.94,35.09,88.61-122.06,62.83-235.34,62.83-235.34,23.49,16.44,18.79,50.5,18.79,50.5,37.58-79.87-7.05-140.94-7.05-140.94,29.36,12.92,31.71,35.24,31.71,35.24,7.05-22.32-17.62-41.11-37.58-71.64-19.97-30.54,21.14-64.6,21.14-64.6,21.14,9.4,19.97,34.06,19.97,34.06,21.14-34.06-9.4-64.6-22.32-92.79-12.92-28.19,21.14-42.28,21.14-42.28,9.4,2.35,9.4,18.79,9.4,18.79,23.49-62.25-35.24-99.83-35.24-99.83,58.73-41.11,59.9-128.02,59.9-128.02-9.4,5.87-21.73-1.76-21.73-1.76,29.36-13.51,38.6-36.34,43.88-58.66,5.29-22.32,30.11-27.67,30.11-27.67,0,0-39.35-65.77-126.26-45.22ZM374.16,287.86c-5.42,1.22-11.11.62-16.03-1.94-10.61-5.51-32.8-13.16-40.6,13.83-10.4,35.98-35.99,7.2-35.99,7.2-28.32-102.73-13.07-159.58-1.1-184.72,4.66-9.79,13.92-10.87,23.5-5.8,62.26,32.94,96.06,100.17,96.06,100.17,20.53,41.65-9.65,67.62-25.85,71.27Z"/>
    <g>
      <path class="cls-3" d="m490.02,608.83s-70.77-37.3-200.24,42.44c0,0,126.72-92.49,200.24-42.44Z"/>
      <path class="cls-3" d="m488.85,613.98s-72.07-17.04-186.67,84.94c0,0,110.48-112.83,186.67-84.94Z"/>
      <path class="cls-3" d="m487.58,619.62s-70.38,2.83-166.26,121.75c0,0,90.63-127.51,166.26-121.75Z"/>
    </g>
    <g>
      <g>
        <path class="cls-1" d="m474.16,447.22s.81-1.99,1.57-5.68c.74-3.68,1.46-9.11.78-15.72-.67-6.54-2.84-14.49-8.1-21.47-2.57-3.48-5.79-6.77-9.6-9.27-3.72-2.65-7.93-4.57-12.18-6.14-4.32-1.37-8.71-2.38-13.03-2.89-4.32-.67-8.6-.62-12.68-.6-2.04.1-4.04.13-6,.28-1.94.24-3.83.47-5.67.7-3.69.34-7.09,1.24-10.24,1.83-3.14.66-5.96,1.53-8.47,2.22-2.52.63-4.63,1.5-6.4,2.09-3.51,1.26-5.48,2.06-5.48,2.06,0,0,2.15-.08,5.84-.36,3.68-.35,8.95-.62,15.19-1.03,3.13-.03,6.5-.34,10.04-.29,1.77,0,3.58,0,5.44,0,1.85.13,3.72.15,5.63.22,3.8.2,7.7.65,11.58,1.26,3.9.55,7.72,1.56,11.4,2.8,3.66,1.27,7.23,2.78,10.32,4.88,3.13,2.02,6.02,4.32,8.3,7.06,2.29,2.71,4.32,5.58,5.76,8.62,1.43,3.03,2.63,6.05,3.43,8.97,1.59,5.84,2.18,11.03,2.41,14.68.25,3.66.16,5.8.16,5.8Z"/>
        <path class="cls-1" d="m457.96,426.93s-33.78,30.93-48.84-17.91c0,0,13.02,36.63,48.84,17.91Z"/>
        <path class="cls-1" d="m455.09,410.85c0,2.98-2.41,5.39-5.39,5.39s-5.39-2.41-5.39-5.39,2.41-5.39,5.39-5.39,5.39,2.41,5.39,5.39Z"/>
        <path class="cls-1" d="m469.51,439.39s-54.42,39.79-81.15-41.74c0,0,22.32,68.81,81.15,41.74Z"/>
      </g>
      <path class="cls-1" d="m468.23,373.03s-20.73-43.51-60.05-38.37c0,0,39.21-10.57,60.05,38.37Z"/>
      <path class="cls-1" d="m463.43,370.62s-25.91-30.39-64.55-19.3c0,0,37.07-15.29,64.55,19.3Z"/>
    </g>
    <path class="cls-3" d="m605.23,711.04s-110.23,87.72-145.4-11.56c0,0,13.92,84.99,24.91,94.69,0,0,13.19,56.11,42.49,65.12,0,0,11.66,66.5,78,65.12,66.34,1.39,78-65.12,78-65.12,29.31-9.01,42.49-65.12,42.49-65.12,10.99-9.7,24.91-94.69,24.91-94.69-35.17,99.28-145.4,11.56-145.4,11.56Z"/>
    <path class="cls-1" d="m683.65,756c-11.02-.92-22.14.54-32.43,4.35-15.14,5.6-39.21,5.03-45.27,4.79v-.07s-.25.01-.71.04c-.46-.02-.72-.04-.72-.04v.07c-5.83.24-28.26.77-43.43-4.15-12.3-3.99-25.31-5.53-38.29-4.69-12.12.79-25.25.59-31.48-3.01,0,0,0,27.71,8.79,30.83,8.79,3.12,13.19,25.52,21.98,27.83,0,0,1,11.14,7.14,17.11.43.42-.07,12.72.41,13.08,0,0,1.69-13.28,2.52-15.32,1.22-2.99,3.27-7.52,5.95-11.66.71-1.1,2.51-.73,2.66.56,1.19,10.18,5.74,38.15,20.68,48.63,1,.7,3.29,3.15,3.92,5.16,2.12,6.78,9.55,21.72,34.05,22.94,1.79.09,3.3-1.26,3.35-2.96l3.67-118.87,1.3,118.81c.02,1.72,1.54,3.1,3.36,3.01,26.08-1.33,32.78-18.22,34.34-24.18.34-1.29,2.57-3.22,3.56-3.92,14.94-10.49,19.49-38.46,20.68-48.64.15-1.28,1.94-1.67,2.66-.56,3.07,4.74,5.31,9.99,6.43,12.86.53,1.35,3.95,12.21,3.95,12.21.68-.51-1.84-11.13-1.26-11.75,5.7-6.08,6.9-16.53,6.9-16.53,8.79-2.31,13.19-24.71,21.98-27.83,8.79-3.12,8.79-30.83,8.79-30.83-6.92,4-22.37,3.8-35.49,2.71Z"/>
    <g>
      <path class="cls-3" d="m656,629c7.18,2.36,15.07-1.19,18.02-7.81,29.34-65.92-41.34-76.63-67.81-76.63s-97.15,10.71-67.81,76.63c2.95,6.62,10.84,10.17,18.02,7.81,4.05-1.33,6.64-4.05,3.4-9.48-7.63-12.77-7.05-22.77,6.46-19.99,13.51,2.78,27.01,36.09-21.14,37.76,0,0,13.84,29.31,57.1,34.57,1.3.16,3.98,23.59,3.98,23.59,0,0,2.37-23.4,3.52-23.53,43.62-5.11,57.56-34.63,57.56-34.63-48.15-1.67-34.65-34.98-21.14-37.76,13.51-2.78,14.09,7.22,6.46,19.99-3.24,5.43-.66,8.15,3.4,9.48Z"/>
      <path class="cls-3" d="m606.21,537.17c13.3,0,35.15,2.08,54.82,9.52-17.31-10.91-41.59-13.6-54.82-13.6s-37.51,2.68-54.82,13.6c19.67-7.44,41.52-9.52,54.82-9.52Z"/>
    </g>
    <g>
      <path class="cls-3" d="m488.54,752.79c4.04,4.91,6.68,10.83,7.57,16.98.27,1.87.39,3.79,1.15,5.54,2.5,5.76,10.81,7.61,13.54,13.28.74,1.55,1.02,3.3,2.02,4.71.88,1.25,2.24,2.1,3.51,3.01,6.87,4.89,11.85,12.1,13.84,20.01,2.23-8.63-3.88-16.98-9.37-24.19-3.17-4.17-6.24-8.4-9.2-12.7-1.48-2.15-11.97-21.81,36.02-24.24,4.35-.22-53.13-1.09-56.82-3.27l-2.26.87Z"/>
      <path class="cls-3" d="m719.67,751.92c-3.69,2.18-61.17,3.05-56.82,3.27,47.99,2.42,37.5,22.09,36.02,24.24-2.96,4.3-6.03,8.53-9.2,12.7-5.49,7.21-11.6,15.56-9.37,24.19,1.99-7.91,6.97-15.12,13.84-20.01,1.27-.9,2.63-1.76,3.51-3.01,1-1.41,1.28-3.16,2.02-4.71,2.73-5.67,11.04-7.52,13.54-13.28.76-1.75.88-3.67,1.15-5.54.9-6.16,3.53-12.08,7.57-16.98l-2.26-.87Z"/>
    </g>
    <path class="cls-1" d="m797.62,434.27s-35.24-109.91-95.65-6.71c0,0,53.7-86.42,95.65,6.71Z"/>
    <path class="cls-1" d="m785.03,425.04s-33.56,54.54-68.8,0c0,0,36.92,39.43,68.8,0Z"/>
    <path class="cls-1" d="m761.76,410.73c0,3.39,2.75,6.14,6.14,6.14s6.14-2.75,6.14-6.14-2.75-6.14-6.14-6.14-6.14,2.75-6.14,6.14Z"/>
    <path class="cls-1" d="m773.55,192.15c3.09-7.5,7.94-14.45,14.3-19.84,6.36-5.39,14.04-9.15,22.04-11.34,5.51-1.52,11.15-2.34,16.79-2.69-.14-.13-.28-.28-.42-.41-1.84-1.58-3.89-2.87-6.17-3.62-.56-.22-1.16-.31-1.74-.48-.29-.07-.58-.17-.88-.22l-.91-.11c-.61-.06-1.2-.2-1.82-.21h-1.87c-.62-.05-1.26.04-1.89.12l-1.9.21c-1.28.25-2.55.58-3.83.85l-19.44,4.11,15.54-12.03c2.11-1.63,4.06-2.98,6.13-4.36,2.05-1.37,4.12-2.67,6.25-3.9,4.24-2.47,8.58-4.74,13.02-6.82,8.89-4.13,18.16-7.57,27.8-9.79,4.81-1.12,9.7-1.97,14.64-2.46,2.46-.31,4.95-.4,7.43-.56,2.49-.04,4.98-.13,7.47,0,4.78.09,9.54.62,14.25,1.5-1.44-1.17-2.92-2.28-4.44-3.25-1.85-1.11-3.76-2.01-5.69-2.61l-10.67-3.34,10.13-3.96c.57-.22,1.05-.38,1.55-.55.5-.18.99-.33,1.48-.48.98-.31,1.96-.61,2.95-.86,1.96-.56,3.94-.99,5.91-1.44,3.96-.8,7.93-1.47,11.94-1.84,2.01-.14,4-.36,6.01-.43l6.01-.14,6,.2c2,.06,3.99.35,5.97.51,7.92.97,15.77,2.55,23.24,5.25l2.8.98,1.4.49,1.36.6,5.41,2.39c1.82.75,3.51,1.79,5.23,2.73l5.12,2.89c-7.26-2.97-14.51-5.8-22.1-7.42l-2.82-.66-1.4-.34-1.43-.23-5.7-.92c-1.89-.32-3.83-.37-5.73-.57l-2.86-.25c-.96-.04-1.92-.04-2.87-.07-1.91-.02-3.82-.18-5.73-.09l-5.72.2-5.69.53c-1.89.19-3.77.54-5.65.8-1.88.28-3.73.71-5.6,1.04-1.86.39-3.69.85-5.53,1.3-.47.13-.93.26-1.4.4,1.69,1.06,3.28,2.22,4.8,3.44,2.05,1.68,3.96,3.46,5.78,5.34.91.94,1.79,1.9,2.64,2.89.87,1.01,1.65,1.95,2.54,3.13l8.15,10.87-13.18-4.15c-8.64-2.72-17.63-4.24-26.7-4.4-2.26-.1-4.53.02-6.8.07-2.27.17-4.54.27-6.79.58-4.52.49-9.02,1.32-13.47,2.4-8.91,2.08-17.64,5.13-26.03,8.95-3.6,1.64-7.14,3.43-10.6,5.35.12.04.24.07.36.1.84.26,1.69.45,2.5.79,3.3,1.22,6.32,3.18,8.83,5.58,1.25,1.2,2.37,2.53,3.38,3.93.49.71.97,1.43,1.4,2.19.22.37.43.77.63,1.16.1.19.2.4.3.62.1.21.19.41.32.74l2.29,5.71-6.02-.38c-7.64-.48-15.29-.08-22.67,1.48-7.39,1.49-14.49,4.38-20.56,8.85-6.18,4.34-11.17,10.36-14.83,17.17-1.85,3.4-3.34,7.03-4.5,10.77-1.21,3.73-2.06,7.6-2.5,11.54-.18-7.95,1.43-15.98,4.49-23.5Z"/>
    <path class="cls-1" d="m712.89,365.51s30.15-72.77,67.64-38.49c0,0-33.03-24.66-67.64,38.49Z"/>
    <g>
      <g>
        <path class="cls-3" d="m655.14,690.39c0,.81-.69,1.46-1.55,1.46s-1.55-.65-1.55-1.46.69-1.46,1.55-1.46,1.55.65,1.55,1.46Z"/>
        <path class="cls-3" d="m666.43,690.39c0,1-.86,1.81-1.92,1.81s-1.92-.81-1.92-1.81.86-1.81,1.92-1.81,1.92.81,1.92,1.81Z"/>
        <path class="cls-3" d="m676.12,688.39c1.17.06,2.07,1,2,2.11-.06,1.1-1.06,1.95-2.23,1.89-1.17-.06-2.07-1-2-2.11.06-1.1,1.06-1.95,2.23-1.89Z"/>
        <path class="cls-3" d="m688.24,688.01c1.39.07,2.46,1.19,2.38,2.51-.07,1.31-1.26,2.32-2.65,2.25-1.39-.07-2.46-1.19-2.38-2.51.07-1.31,1.26-2.32,2.65-2.25Z"/>
        <path class="cls-3" d="m701.01,687.76c1.54.08,2.71,1.32,2.63,2.77-.08,1.45-1.39,2.57-2.93,2.49s-2.71-1.32-2.63-2.77c.08-1.45,1.39-2.57,2.93-2.49Z"/>
      </g>
      <g>
        <path class="cls-3" d="m659.1,682.42c.16.79-.39,1.56-1.23,1.71s-1.65-.37-1.8-1.17c-.16-.79.39-1.56,1.23-1.71.84-.15,1.65.37,1.8,1.17Z"/>
        <path class="cls-3" d="m670.2,680.45c.2.98-.49,1.93-1.53,2.12-1.04.19-2.04-.46-2.24-1.45-.2-.98.49-1.93,1.53-2.12,1.04-.19,2.04.46,2.24,1.45Z"/>
        <path class="cls-3" d="m679.33,676.79c1.16-.15,2.23.62,2.38,1.72.15,1.1-.66,2.1-1.82,2.25-1.16.15-2.23-.62-2.38-1.72s.66-2.1,1.82-2.25Z"/>
        <path class="cls-3" d="m691.16,674.3c1.38-.17,2.65.74,2.83,2.05.18,1.3-.79,2.5-2.17,2.68-1.38.17-2.65-.74-2.83-2.05-.18-1.3.79-2.5,2.17-2.68Z"/>
        <path class="cls-3" d="m703.67,671.83c1.52-.19,2.92.82,3.13,2.26.2,1.44-.87,2.76-2.39,2.96-1.52.19-2.92-.82-3.13-2.26-.2-1.44.87-2.76,2.39-2.96Z"/>
      </g>
      <g>
        <path class="cls-3" d="m659.17,700.25c-.17.79-.99,1.3-1.83,1.13-.84-.16-1.37-.94-1.2-1.73.17-.79.99-1.3,1.83-1.13.84.16,1.37.94,1.2,1.73Z"/>
        <path class="cls-3" d="m670.23,702.43c-.22.98-1.23,1.61-2.27,1.41-1.04-.2-1.7-1.17-1.49-2.15.22-.98,1.23-1.61,2.27-1.41s1.7,1.17,1.49,2.15Z"/>
        <path class="cls-3" d="m680.14,702.34c1.13.28,1.81,1.38,1.51,2.45-.3,1.07-1.46,1.71-2.59,1.42-1.13-.28-1.81-1.38-1.51-2.45.3-1.07,1.46-1.71,2.59-1.42Z"/>
        <path class="cls-3" d="m692.08,704.3c1.35.34,2.15,1.64,1.79,2.91s-1.74,2.03-3.08,1.7-2.15-1.64-1.79-2.91,1.74-2.03,3.08-1.7Z"/>
        <path class="cls-3" d="m704.64,706.52c1.49.37,2.37,1.81,1.98,3.22s-1.92,2.24-3.4,1.87c-1.49-.37-2.37-1.81-1.98-3.22.39-1.41,1.92-2.24,3.4-1.87Z"/>
      </g>
      <path class="cls-3" d="m718.03,690.55c0,1.55-1.33,2.81-2.97,2.81s-2.97-1.26-2.97-2.81,1.33-2.81,2.97-2.81,2.97,1.26,2.97,2.81Z"/>
    </g>
  </g>
  <g>
    <path d="m469.2,876.92c.57.07.86.1,1.43.17-.49-1.08-.96-1.97-1.41-2.68-.45-.71-1.03-1.53-1.71-2.47-.83-1.15-1.34-1.99-1.52-2.47-.23-.59-.27-1.13-.13-1.62.14-.49.42-.81.83-.97.85-.33,1.94-.12,3.25.58s2.45,1.73,3.45,3.04c1.3,1.71,2.81,3.98,4.52,6.72s3.31,5.43,4.83,8.11c1.71,3.03,3.19,5.74,4.39,8.21,1.2,2.47,2.13,4.77,2.76,6.94.63,2.17,1.01,4.24,1.12,6.22.11,1.99-.12,3.81-.71,5.49-.59,1.67-1.52,3.09-2.81,4.22-1.17,1.02-2.78,1.82-4.86,2.35-2.08.53-4.37.71-6.89.5-2.52-.21-4.94-.8-7.24-1.77-2.67-1.13-5.57-3.02-8.61-5.79-3.04-2.77-5.39-5.69-7.06-8.63-.71-1.26-1.2-2.44-1.47-3.55-.27-1.11-.21-1.77.17-1.97.58-.31,1.32-.22,2.23.25.91.48,2.32,1.5,4.11,3.01,1.51,1.28,3.13,2.54,4.73,3.35,2,1.01,4.02,1.39,5.72,1.32,1.69-.07,3.37-.69,5.04-1.83,1.59-1.08,2.66-2.43,3.24-4,.57-1.58.71-3.57.47-6.01-6.8.85-10.25,1.12-17.25,1.34-1.24.02-1.86.02-3.1.02-1.25-.05-3.3.1-6.11.3-4.88.35-8.63-.09-11.02-1.04-1.05-.42-2.2-1.08-3.44-2-1.78-1.56-3.68-3.74-5.64-6.63-1.96-2.88-3.34-5.56-4.18-7.94-.55-1.57-.75-2.9-.6-3.99s.64-1.75,1.46-2.02c.91-.3,2.4-.27,4.46.05,2.05.31,5.82,1.11,11.25,2.04.9.16,1.35.24,2.24.4.97.15,1.46.22,2.43.36,8.75,1.53,13.09,1.99,21.65,2.38Z"/>
    <path d="m494.45,956.59s-.05.07-.09.11c-.04-.1-.06-.15-.1-.25-4.42-.18-8.38-.73-11.81-1.55-3.43-.82-6.43-1.91-8.95-3.2-2.53-1.29-4.6-2.8-6.2-4.46-3.25-3.4-5.19-6.96-5.82-10.46-.63-3.49.18-6.09,2.28-7.8,1.3-1.05,3.28-1.72,5.93-2.09,2.65-.37,5.57-.35,8.76-.03,5.27.58,10.72,1.97,16.45,3.98,5.91,2.07,10.78,4.49,14.83,7.58,3.42,2.6,5.95,5.09,7.59,7.64,1.64,2.56,2.03,4.61,1.03,6.2-.74,1.18-2.12,2.05-4.2,2.57,1.62,1.03,2.58,1.77,2.87,2.26.28.49.17,1.15-.34,2,.05-.08-.34.29-.99,1.1-1.42,1.75-2.64,3.67-3.7,5.4-.55.9-.96,1.59-1.21,2.08-.25.48-.51,1.05-.78,1.71-.27.66-.46,1.2-.58,1.63-.31,1.1-.44,2.3-.38,3.59-2.76-.01-5.27-.36-7.49-1.02-2.22-.66-4.3-1.65-6.21-2.98-5.15-3.58-5.75-7.98-2.02-12.78.43-.56.8-.97,1.11-1.24Zm7.61-4.39c-.39-.18-.58-.27-.97-.46-2.41-1.22-4.07-2.25-5-3-1.13-.91-1.54-1.56-1.24-1.92.11-.13.61-.27,1.52-.44,2.87-.24,4.82-1.11,5.92-2.49.63-.79.99-1.68,1.1-2.66s-.07-1.66-.55-2.06c-.43-.35-1.34-.58-2.74-.71-4.03-.29-7.63-.27-10.8.18-3.17.45-5.46,1.32-6.82,2.72-.9.93-1.33,2.01-1.28,3.23.05,1.22.58,2.3,1.56,3.2.84.77,2.91,1.68,6.2,2.56,3.28.88,7.15,1.53,11.53,1.82.67.11,1,.17,1.67.27-.04-.1-.06-.15-.09-.24Z"/>
    <path d="m546.64,979.68c-1.32.89-1.99,1.33-3.34,2.2-3.07,1.93-5.87,3.35-8.32,4.3-2.46.95-4.63,1.42-6.47,1.43-1.84.02-3.63-.38-5.35-1.17-1.75-.81-3.07-1.98-3.92-3.48-1.63-2.96-1.98-7.3-.9-12.84.87-4.46,2.19-8.05,3.75-10.79,1.23-2.14,2.57-3.65,4.01-4.54,1.44-.89,3.07-1.23,4.9-1.06s3.96.85,6.41,2c1.29.6,2.16,1.18,2.6,1.76.45.58.56,1.4.35,2.46-.21,1.06-.75,2.57-1.61,4.53-1.58,3.57-2.8,7.05-3.62,10.45,0,.2-.21,1.14-.6,2.81.1.04.16.07.26.11.38-.22.68-.4.9-.54.22-.14.44-.28.66-.41.22-.14.42-.26.61-.38.19-.11.45-.28.78-.5,2.9-1.87,5.96-4.17,9.15-6.91,3.66-3.14,5.94-5.08,7.02-5.69.29-.13.66-.25,1.12-.37,1.77-.29,4.02,0,6.83.77,1.48.41,2.53.9,3.16,1.48.63.58.96,1.37.99,2.37.04,1-.15,2.62-.65,4.73-.4,1.69-.74,4.16-.88,7.37-.14,3.21-.11,6.1.11,8.67.06.88.25,2.57.6,5.07.11.02.17.04.28.06,1.16-1.34,1.96-2.41,2.43-3.2,1.68-2.7,3.04-6.81,4.15-12.31.13-.62.19-.93.31-1.55.33-1.63.81-2.89,1.44-3.79.63-.9,1.57-1.67,2.79-2.26,1.27-.62,2.73-1.05,4.31-1.35,1.58-.3,2.92-.38,4.06-.24,1.33.17,2.24.65,2.72,1.47.49.82.65,2.08.47,3.78-.41,3.82-2.03,8.52-5.25,13.88-2.75,4.59-6.35,8.67-10.82,12.1-1.44,1.06-2.81,1.89-4.12,2.48-1.31.59-2.62.92-3.92,1-1.31.08-2.76-.07-4.34-.43-5.64-1.3-9.67-4.68-11.8-9.81-.62-1.57-1.05-3.27-1.28-5.11-.24-1.84-.26-3.88-.07-6.13-.05-.42.06-1.2.35-2.34-.1-.04-.16-.05-.26-.09Z"/>
    <path d="m647.7,968.26c-.34,1.26-.52,1.88-.89,3.14-1.23,4.04-2.46,8.03-3.67,11.96-.58,1.9-1.4,5.17-2.63,9.79,3.09-.75,7.19-2.01,12.17-3.99,3.2-1.27,5.12-2.07,5.81-2.28,1.27-.38,2.01-.26,2.21.36.24.74-.13,1.99-1.15,3.75-1.02,1.76-2.32,3.38-3.88,4.84-1.07,1.04-2.82,2.02-5.28,2.88-2.46.87-6.38,1.9-11.81,2.82-5.07.86-9.03,1.25-11.82,1.37-.04,0-.71-.04-2-.15-2.31-.34-3.53-1.42-3.68-3.2-.11-1.28.31-3.68,1.17-7.19.85-3.51,2.1-7.91,3.55-13.21,3.31-11.82,5.1-19.26,6.67-22.26.49-1.02,1.17-1.87,2.06-2.56.88-.69,2.14-1.35,3.76-2.01,1.56-.64,3.39-1.24,5.48-1.81,1.95-.53,3.37-.74,4.28-.59.91.15,1.52.7,1.83,1.66.3.92.34,2.79.04,5.64-.3,2.85-.97,6.53-2.2,11.03Z"/>
    <path d="m685.96,946.58c4.2-2.52,6.45-3.59,6.91-2.91.53.78-.14,1.83-1.98,3.1-2.22,1.53-4.11,3.31-5.68,5.31-1.57,2-2.8,4.15-3.69,6.49-.89,2.34-1.38,4.67-1.43,7.02-.05,2.35.4,4.58,1.41,6.67,1.11,2.31,2.87,3.77,5.33,4.31,2.46.54,5.14.06,7.94-1.46,2.6-1.41,4.39-3.52,5.31-6.21.92-2.7.67-5.08-.65-7.14-1.07-1.69-2.64-2.92-4.65-3.74-2.01-.82-4.35-1.14-7.01-1.01-1.15.03-1.78-.07-1.9-.27-.16-.29.21-1.09,1.09-2.36.98-1.41,2.2-2.83,3.59-4.27s2.62-2.53,3.72-3.26c1.28-.84,2.63-1.44,4.09-1.78s2.92-.43,4.4-.26c1.48.18,2.86.61,4.14,1.31s2.39,1.63,3.31,2.82c1.53,1.97,2.47,4.37,2.72,7.23.25,2.86-.21,5.68-1.44,8.35-1.58,3.44-4.09,6.98-7.52,10.46s-7.13,6.21-10.96,8.15c-3.73,1.89-7.68,3.26-11.76,4.08-4.09.82-7.51.93-10.19.44-3.58-.67-5.91-2.73-7.05-5.99-.9-2.57-.79-5.48.17-8.72s2.59-6.48,4.78-9.8c2.2-3.32,4.73-6.37,7.63-9.25,2.9-2.88,5.98-5.29,9.37-7.32Z"/>
    <path d="m730.22,915.23c-.12-.55-.19-.82-.32-1.36-.4-1.47-.59-2.55-.56-3.26.04-.71.35-1.46.94-2.25,1.72-2.33,4.31-2.28,7.85.24,1.03.74,1.84,1.49,2.41,2.28.57.78.97,1.75,1.25,2.81.36,1.36.74,3.12.98,5.21.24,2.1.39,4.42.42,6.97s-.08,5.23-.33,8.01c-.38,5.03-1.17,9.1-2.16,12.12-.99,3.03-2.24,5.23-3.65,6.58-2.61,2.5-5.43,3.19-8.15,2.39-1.77-.52-3.8-1.32-5.89-2.48-2.09-1.16-4.04-2.49-5.85-3.96-1.81-1.48-3.39-3.05-4.76-4.7-1.89-2.29-3.17-4.47-3.88-6.54s-.8-3.82-.2-5.1c.52-1.11,1.36-2.14,2.33-3.03,1.15-1.05,2.33-1.94,3.55-2.66,1.23-.72,2.4-1.1,3.37-1.24.83-.12,1.71-.11,2.54.19.84.3,1.9.98,3.18,2.04,1.28,1.06,2.98,2.6,5.08,4.62.52.5.78.75,1.3,1.25.98.94,1.47,1.41,2.44,2.35,1.15,1.11,1.73,1.66,2.88,2.76.07-.07.1-.1.16-.17-.22-1.24-.37-2.22-.44-2.93-.23-1.93-.88-5.85-2.27-11.59-.31-1.2-.87-3.45-1.79-6.7-.18-.74-.27-1.11-.46-1.85Z"/>
    <path d="m765.06,897.74c1.46.23,2.86-.94,4.12-3.59,1.41-2.96,2.26-7.34,2.3-13.04.03-3.32.17-5.47.53-6.47.45-1.25,1.04-2.36,1.76-3.34.73-.98,1.28-1.42,1.66-1.3.4.13.72.93.94,2.4.4,2.69.6,5.72.57,9.08s-.29,6.56-.74,9.54c-.46,2.99-1.12,5.89-2,8.69-.87,2.8-1.86,5.18-2.93,7.15-2.67,4.91-5.7,8.24-8.84,10.05-3.15,1.81-5.88,1.81-8.18.22-1.76-1.22-3.28-3.27-4.65-6.09-1.37-2.82-2.36-5.96-3.01-9.4-.77-4.05-.93-8.41-.54-13.11.48-5.78,1.59-10.88,3.45-15.5,1.34-3.34,2.96-5.79,4.97-7.33,2.01-1.55,4.16-2.01,6.48-1.25,1.81.59,3.42,2.04,4.79,4.42,1.37,2.39,2.32,5.63,2.8,9.66.4,3.32.44,6.51.1,9.48-.34,2.97-1,5.42-1.93,7.32-.42.85-.97,1.66-1.64,2.42Zm-1.06-.41c.24-2.08.25-3.75.03-4.99-.39-2.7-1.4-5.05-2.56-6.94-.81-1.31-1.8-2.68-3.05-3.81-1.25-1.13-2.51-1.96-3.78-2.52-1.18-.52-1.95-.36-2.31.47-.5,1.15.25,3.55,2.09,7.38,1.12,2.28,2.33,4.33,3.64,6.14,1.31,1.81,2.58,3.06,3.85,3.73.44.23,1.13.41,2.1.53Z"/>
  </g>
</svg>